<?xml version="1.0" encoding="UTF-8" standalone="no"?>
<!-- Created with Inkscape (http://www.inkscape.org/) -->

<svg
   xmlns:dc="http://purl.org/dc/elements/1.1/"
   xmlns:cc="http://creativecommons.org/ns#"
   xmlns:rdf="http://www.w3.org/1999/02/22-rdf-syntax-ns#"
   xmlns:svg="http://www.w3.org/2000/svg"
   xmlns="http://www.w3.org/2000/svg"
   xmlns:sodipodi="http://sodipodi.sourceforge.net/DTD/sodipodi-0.dtd"
   xmlns:inkscape="http://www.inkscape.org/namespaces/inkscape"
   width="744.09448819"
   height="1052.3622047"
   id="svg2"
   version="1.1"
   inkscape:version="0.48.4 r9939"
   sodipodi:docname="New document 1">
  <defs
     id="defs4" />
  <sodipodi:namedview
     id="base"
     pagecolor="#ffffff"
     bordercolor="#666666"
     borderopacity="1.0"
     inkscape:pageopacity="0.0"
     inkscape:pageshadow="2"
     inkscape:zoom="0.7"
     inkscape:cx="362.2691"
     inkscape:cy="657.27247"
     inkscape:document-units="px"
     inkscape:current-layer="layer2"
     showgrid="false"
     inkscape:snap-global="true"
     inkscape:window-width="962"
     inkscape:window-height="689"
     inkscape:window-x="382"
     inkscape:window-y="0"
     inkscape:window-maximized="0" />
  <metadata
     id="metadata7">
    <rdf:RDF>
      <cc:Work
         rdf:about="">
        <dc:format>image/svg+xml</dc:format>
        <dc:type
           rdf:resource="http://purl.org/dc/dcmitype/StillImage" />
        <dc:title></dc:title>
      </cc:Work>
    </rdf:RDF>
  </metadata>
  <g
     inkscape:label="Layer 1"
     inkscape:groupmode="layer"
     id="layer1"
     sodipodi:insensitive="true">
    <path
       sodipodi:type="arc"
       style="opacity:0.25961537;fill:#aaffaa;fill-opacity:1;fill-rule:nonzero;stroke:none"
       id="path2987"
       sodipodi:cx="451.42856"
       sodipodi:cy="486.64789"
       sodipodi:rx="237.14285"
       sodipodi:ry="237.14285"
       d="m 688.57141,486.64789 a 237.14285,237.14285 0 1 1 -474.2857,0 237.14285,237.14285 0 1 1 474.2857,0 z"
       transform="translate(-74.285714,-114.28571)" />
    <path
       sodipodi:type="arc"
       style="opacity:0.25961537;fill:#aaffaa;fill-opacity:1;fill-rule:nonzero;stroke:none"
       id="path2987-1"
       sodipodi:cx="451.42856"
       sodipodi:cy="486.64789"
       sodipodi:rx="237.14285"
       sodipodi:ry="237.14285"
       d="m 688.57141,486.64789 a 237.14285,237.14285 0 1 1 -474.2857,0 237.14285,237.14285 0 1 1 474.2857,0 z"
       transform="translate(-37.142844,-88.57142)" />
  </g>
  <g
     inkscape:groupmode="layer"
     id="layer2"
     inkscape:label="Layer">
    <path
       style="fill:#000000;stroke:#000000;stroke-width:1px;stroke-linecap:butt;stroke-linejoin:miter;stroke-opacity:1"
       d="m 608.57143,396.6479 -80,-30 22.85714,-12.85715 -95.71428,-18.57142 -54.28572,1.42857 0,21.42857 51.42857,-5.71429 65.71429,14.28572 -27.14286,42.85714 40,-24.28571 L 490,452.36218 l 71.42857,-58.57143 -25.71428,60 50,-47.14285 -32.85715,80 -58.57143,37.14285 80,-38.57142 31.42858,-50 z"
       id="path3012"
       inkscape:connector-curvature="0" />
    <path
       style="fill:#000000;stroke:#000000;stroke-width:1px;stroke-linecap:butt;stroke-linejoin:miter;stroke-opacity:1"
       d="m 234.28571,389.50504 40,-25.71429 65.71429,-8.57142 -5.71429,10 -38.57143,21.42857 -42.85714,14.28571 -20,-1.42857 z"
       id="path3014"
       inkscape:connector-curvature="0" />
    <path
       style="fill:#ffffff;stroke:none;stroke-width:1px;stroke-linecap:butt;stroke-linejoin:miter;stroke-opacity:1"
       d="m 272.85714,405.21933 -4.28571,-24.28572 32.85714,10 5.71428,-22.85714 10,-2.85714 0,30 z"
       id="path3016"
       inkscape:connector-curvature="0" />
    <path
       style="fill:#000000;stroke:#000000;stroke-width:1px;stroke-linecap:butt;stroke-linejoin:miter;stroke-opacity:1"
       d="m 392.85714,320.93361 -34.28571,52.85714 c 0,0 10,-32.85714 1.42857,-24.28571 -8.57143,8.57143 -22.85714,20 -22.85714,20 l 10,-25.71429 L 330,368.07647 328.57143,399.50504 237.14286,422.36218 230,439.50504 l 111.42857,-20 L 230,456.6479 l 117.14286,-20 -120,47.14285 111.42857,-27.14285 -105.71429,47.14285 102.85715,-28.57142 62.85714,51.42857 -17.14286,-74.28572 54.28572,70 -41.42858,-117.14285 37.14286,21.42857 -52.85714,-57.14286 z"
       id="path3786"
       inkscape:connector-curvature="0" />
    <path
       style="fill:#000000;stroke:#000000;stroke-width:1px;stroke-linecap:butt;stroke-linejoin:miter;stroke-opacity:1"
       d="m 392.85714,329.50504 c 0,0 3.06439,-28.62063 -7.14286,-34.28571 -21.73476,-12.06292 -69.99999,25.71428 -69.99999,25.71428 l -62.85715,18.57143 65.71429,-28.57143 c 0,0 57.69303,-60.06702 85.71429,-44.28571 18.29857,10.30558 4.28571,62.85714 4.28571,62.85714 z"
       id="path3788"
       inkscape:connector-curvature="0"
       sodipodi:nodetypes="cacccacc" />
  </g>
</svg>
